<svg width="54" height="54" viewBox="0 0 54 54" fill="none" xmlns="http://www.w3.org/2000/svg">
<g filter="url(#filter0_d_25_761)">
<mask id="path-1-inside-1_25_761" fill="white">
<path d="M27 6C29.7614 6 32 8.23858 32 11V16H37C39.7614 16 42 18.2386 42 21C42 23.7614 39.7614 26 37 26H32V31C32 33.7614 29.7614 36 27 36C24.2386 36 22 33.7614 22 31V26H17C14.2386 26 12 23.7614 12 21C12 18.2386 14.2386 16 17 16H22V11C22 8.23858 24.2386 6 27 6Z"/>
</mask>
<path d="M27 6C29.7614 6 32 8.23858 32 11V16H37C39.7614 16 42 18.2386 42 21C42 23.7614 39.7614 26 37 26H32V31C32 33.7614 29.7614 36 27 36C24.2386 36 22 33.7614 22 31V26H17C14.2386 26 12 23.7614 12 21C12 18.2386 14.2386 16 17 16H22V11C22 8.23858 24.2386 6 27 6Z" fill="url(#paint0_linear_25_761)"/>
<path d="M32 11H35V11H32ZM32 16H29V19H32V16ZM37 16V13V13V16ZM37 26V29V29V26ZM32 26V23H29V26H32ZM32 31H35V31H32ZM22 31H19V31H22ZM22 26H25V23H22V26ZM17 26L17 29H17V26ZM17 16V13V13V16ZM22 16V19H25V16H22ZM22 11L19 11V11H22ZM27 6V9C28.1046 9 29 9.89543 29 11H32H35C35 6.58172 31.4183 3 27 3V6ZM32 11H29V16H32H35V11H32ZM32 16V19H37V16V13H32V16ZM37 16V19C38.1046 19 39 19.8954 39 21H42H45C45 16.5817 41.4183 13 37 13V16ZM42 21H39C39 22.1046 38.1046 23 37 23V26V29C41.4183 29 45 25.4183 45 21H42ZM37 26V23H32V26V29H37V26ZM32 26H29V31H32H35V26H32ZM32 31H29C29 32.1046 28.1046 33 27 33V36V39C31.4183 39 35 35.4183 35 31H32ZM27 36V33C25.8954 33 25 32.1046 25 31H22H19C19 35.4183 22.5817 39 27 39V36ZM22 31H25V26H22H19V31H22ZM22 26V23H17V26V29H22V26ZM17 26L17 23C15.8954 23 15 22.1046 15 21H12H9C9 25.4183 12.5817 29 17 29L17 26ZM12 21H15C15 19.8954 15.8954 19 17 19V16V13C12.5817 13 9 16.5817 9 21H12ZM17 16V19H22V16V13H17V16ZM22 16H25V11H22H19V16H22ZM22 11L25 11C25 9.89543 25.8954 9 27 9V6V3C22.5817 3 19 6.58172 19 11L22 11Z" fill="#1F2430" mask="url(#path-1-inside-1_25_761)"/>
</g>
<defs>
<filter id="filter0_d_25_761" x="0" y="0" width="54" height="54" filterUnits="userSpaceOnUse" color-interpolation-filters="sRGB">
<feFlood flood-opacity="0" result="BackgroundImageFix"/>
<feColorMatrix in="SourceAlpha" type="matrix" values="0 0 0 0 0 0 0 0 0 0 0 0 0 0 0 0 0 0 127 0" result="hardAlpha"/>
<feOffset dy="6"/>
<feGaussianBlur stdDeviation="6"/>
<feComposite in2="hardAlpha" operator="out"/>
<feColorMatrix type="matrix" values="0 0 0 0 0 0 0 0 0 0 0 0 0 0 0 0 0 0 0.15 0"/>
<feBlend mode="normal" in2="BackgroundImageFix" result="effect1_dropShadow_25_761"/>
<feBlend mode="normal" in="SourceGraphic" in2="effect1_dropShadow_25_761" result="shape"/>
</filter>
<linearGradient id="paint0_linear_25_761" x1="38.5" y1="9.5" x2="17" y2="31.5" gradientUnits="userSpaceOnUse">
<stop stop-color="#6BC497"/>
<stop offset="1" stop-color="#8EDFB3"/>
</linearGradient>
</defs>
</svg>
