<svg width="57" height="57" viewBox="0 0 57 57" fill="none" xmlns="http://www.w3.org/2000/svg">
<g filter="url(#filter0_d_18_2)">
<rect x="12" y="6" width="33" height="33" rx="16.5" fill="url(#paint0_linear_18_2)" shape-rendering="crispEdges"/>
<rect x="14" y="8" width="29" height="29" rx="14.5" stroke="#8EDFB3" stroke-width="4" shape-rendering="crispEdges"/>
<path d="M26.675 31C25.075 31 23.8958 30.6167 23.1375 29.85C22.3792 29.075 22 27.9 22 26.325C22 26.05 22.1042 25.8083 22.3125 25.6C22.5292 25.3833 22.775 25.275 23.05 25.275C23.325 25.275 23.5667 25.3833 23.775 25.6C23.9917 25.8083 24.1 26.05 24.1 26.325C24.1 27.3333 24.2833 28.0167 24.65 28.375C25.0167 28.725 25.6917 28.9 26.675 28.9H30.125C31.1167 28.9 31.7917 28.725 32.15 28.375C32.5167 28.0167 32.7 27.3333 32.7 26.325C32.7 25.3083 32.5167 24.625 32.15 24.275C31.7917 23.925 31.1167 23.75 30.125 23.75H27.05C25.5417 23.75 24.4167 23.4 23.675 22.7C22.9417 22 22.575 20.9 22.575 19.4C22.575 17.8833 22.9417 16.7625 23.675 16.0375C24.4083 15.3125 25.525 14.95 27.025 14.95H30.05C31.55 14.95 32.6667 15.3125 33.4 16.0375C34.1333 16.7625 34.5 17.875 34.5 19.375C34.5 19.65 34.3917 19.8958 34.175 20.1125C33.9667 20.3208 33.725 20.425 33.45 20.425C33.175 20.425 32.9292 20.3208 32.7125 20.1125C32.5042 19.8958 32.4 19.65 32.4 19.375C32.4 18.4583 32.2375 17.8417 31.9125 17.525C31.5958 17.2083 30.975 17.05 30.05 17.05H27.025C26.1 17.05 25.475 17.2125 25.15 17.5375C24.8333 17.8542 24.675 18.475 24.675 19.4C24.675 20.3083 24.8375 20.9125 25.1625 21.2125C25.4875 21.5042 26.1167 21.65 27.05 21.65H30.125C31.7 21.65 32.8708 22.0375 33.6375 22.8125C34.4125 23.5792 34.8 24.75 34.8 26.325C34.8 27.9 34.4125 29.075 33.6375 29.85C32.8708 30.6167 31.7 31 30.125 31H26.675ZM28.4 33.25C27.8167 33.25 27.525 32.9583 27.525 32.375V23.225L27.675 22.125V13.25C27.675 12.6667 27.9667 12.375 28.55 12.375C29.1333 12.375 29.425 12.6667 29.425 13.25V22.225L29.275 23.175V32.375C29.275 32.9583 28.9833 33.25 28.4 33.25Z" fill="#1F2430"/>
</g>
<defs>
<filter id="filter0_d_18_2" x="0" y="0" width="57" height="57" filterUnits="userSpaceOnUse" color-interpolation-filters="sRGB">
<feFlood flood-opacity="0" result="BackgroundImageFix"/>
<feColorMatrix in="SourceAlpha" type="matrix" values="0 0 0 0 0 0 0 0 0 0 0 0 0 0 0 0 0 0 127 0" result="hardAlpha"/>
<feOffset dy="6"/>
<feGaussianBlur stdDeviation="6"/>
<feComposite in2="hardAlpha" operator="out"/>
<feColorMatrix type="matrix" values="0 0 0 0 0 0 0 0 0 0 0 0 0 0 0 0 0 0 0.15 0"/>
<feBlend mode="normal" in2="BackgroundImageFix" result="effect1_dropShadow_18_2"/>
<feBlend mode="normal" in="SourceGraphic" in2="effect1_dropShadow_18_2" result="shape"/>
</filter>
<linearGradient id="paint0_linear_18_2" x1="28" y1="10" x2="28" y2="35.5" gradientUnits="userSpaceOnUse">
<stop stop-color="#6BC497"/>
<stop offset="1" stop-color="#8EDFB3"/>
</linearGradient>
</defs>
</svg>
