<svg width="191" height="54" viewBox="0 0 191 54" fill="none" xmlns="http://www.w3.org/2000/svg">
<path d="M0.875 25.25C0.875 23.5333 1.25833 22 2.025 20.65C2.80833 19.2833 3.86667 18.225 5.2 17.475C6.55 16.7083 8.05833 16.325 9.725 16.325C11.675 16.325 13.3833 16.825 14.85 17.825C16.3167 18.825 17.3417 20.2083 17.925 21.975H13.9C13.5 21.1417 12.9333 20.5167 12.2 20.1C11.4833 19.6833 10.65 19.475 9.7 19.475C8.68333 19.475 7.775 19.7167 6.975 20.2C6.19167 20.6667 5.575 21.3333 5.125 22.2C4.69167 23.0667 4.475 24.0833 4.475 25.25C4.475 26.4 4.69167 27.4167 5.125 28.3C5.575 29.1667 6.19167 29.8417 6.975 30.325C7.775 30.7917 8.68333 31.025 9.7 31.025C10.65 31.025 11.4833 30.8167 12.2 30.4C12.9333 29.9667 13.5 29.3333 13.9 28.5H17.925C17.3417 30.2833 16.3167 31.675 14.85 32.675C13.4 33.6583 11.6917 34.15 9.725 34.15C8.05833 34.15 6.55 33.775 5.2 33.025C3.86667 32.2583 2.80833 31.2 2.025 29.85C1.25833 28.5 0.875 26.9667 0.875 25.25ZM27.0645 34.225C25.7311 34.225 24.5311 33.9333 23.4645 33.35C22.3978 32.75 21.5561 31.9083 20.9395 30.825C20.3395 29.7417 20.0395 28.4917 20.0395 27.075C20.0395 25.6583 20.3478 24.4083 20.9645 23.325C21.5978 22.2417 22.4561 21.4083 23.5395 20.825C24.6228 20.225 25.8311 19.925 27.1645 19.925C28.4978 19.925 29.7061 20.225 30.7895 20.825C31.8728 21.4083 32.7228 22.2417 33.3395 23.325C33.9728 24.4083 34.2895 25.6583 34.2895 27.075C34.2895 28.4917 33.9645 29.7417 33.3145 30.825C32.6811 31.9083 31.8145 32.75 30.7145 33.35C29.6311 33.9333 28.4145 34.225 27.0645 34.225ZM27.0645 31.175C27.6978 31.175 28.2895 31.025 28.8395 30.725C29.4061 30.4083 29.8561 29.9417 30.1895 29.325C30.5228 28.7083 30.6895 27.9583 30.6895 27.075C30.6895 25.7583 30.3395 24.75 29.6395 24.05C28.9561 23.3333 28.1145 22.975 27.1145 22.975C26.1145 22.975 25.2728 23.3333 24.5895 24.05C23.9228 24.75 23.5895 25.7583 23.5895 27.075C23.5895 28.3917 23.9145 29.4083 24.5645 30.125C25.2311 30.825 26.0645 31.175 27.0645 31.175ZM44.5318 19.95C46.1818 19.95 47.5152 20.475 48.5318 21.525C49.5485 22.5583 50.0568 24.0083 50.0568 25.875V34H46.5568V26.35C46.5568 25.25 46.2818 24.4083 45.7318 23.825C45.1818 23.225 44.4318 22.925 43.4818 22.925C42.5152 22.925 41.7485 23.225 41.1818 23.825C40.6318 24.4083 40.3568 25.25 40.3568 26.35V34H36.8568V20.15H40.3568V21.875C40.8235 21.275 41.4152 20.8083 42.1318 20.475C42.8652 20.125 43.6652 19.95 44.5318 19.95ZM57.4602 23.025V29.725C57.4602 30.1917 57.5685 30.5333 57.7852 30.75C58.0185 30.95 58.4018 31.05 58.9352 31.05H60.5602V34H58.3602C55.4102 34 53.9352 32.5667 53.9352 29.7V23.025H52.2852V20.15H53.9352V16.725H57.4602V20.15H60.5602V23.025H57.4602ZM62.1775 27.025C62.1775 25.625 62.4525 24.3833 63.0025 23.3C63.5692 22.2167 64.3275 21.3833 65.2775 20.8C66.2442 20.2167 67.3192 19.925 68.5025 19.925C69.5359 19.925 70.4359 20.1333 71.2025 20.55C71.9859 20.9667 72.6109 21.4917 73.0775 22.125V20.15H76.6025V34H73.0775V31.975C72.6275 32.625 72.0025 33.1667 71.2025 33.6C70.4192 34.0167 69.5109 34.225 68.4775 34.225C67.3109 34.225 66.2442 33.925 65.2775 33.325C64.3275 32.725 63.5692 31.8833 63.0025 30.8C62.4525 29.7 62.1775 28.4417 62.1775 27.025ZM73.0775 27.075C73.0775 26.225 72.9109 25.5 72.5775 24.9C72.2442 24.2833 71.7942 23.8167 71.2275 23.5C70.6609 23.1667 70.0525 23 69.4025 23C68.7525 23 68.1525 23.1583 67.6025 23.475C67.0525 23.7917 66.6025 24.2583 66.2525 24.875C65.9192 25.475 65.7525 26.1917 65.7525 27.025C65.7525 27.8583 65.9192 28.5917 66.2525 29.225C66.6025 29.8417 67.0525 30.3167 67.6025 30.65C68.1692 30.9833 68.7692 31.15 69.4025 31.15C70.0525 31.15 70.6609 30.9917 71.2275 30.675C71.7942 30.3417 72.2442 29.875 72.5775 29.275C72.9109 28.6583 73.0775 27.925 73.0775 27.075ZM83.5209 22.175C83.9709 21.5083 84.5876 20.9667 85.3709 20.55C86.1709 20.1333 87.0792 19.925 88.0959 19.925C89.2792 19.925 90.3459 20.2167 91.2959 20.8C92.2626 21.3833 93.0209 22.2167 93.5709 23.3C94.1376 24.3667 94.4209 25.6083 94.4209 27.025C94.4209 28.4417 94.1376 29.7 93.5709 30.8C93.0209 31.8833 92.2626 32.725 91.2959 33.325C90.3459 33.925 89.2792 34.225 88.0959 34.225C87.0626 34.225 86.1542 34.025 85.3709 33.625C84.6042 33.2083 83.9876 32.675 83.5209 32.025V34H80.0209V15.5H83.5209V22.175ZM90.8459 27.025C90.8459 26.1917 90.6709 25.475 90.3209 24.875C89.9876 24.2583 89.5376 23.7917 88.9709 23.475C88.4209 23.1583 87.8209 23 87.1709 23C86.5376 23 85.9376 23.1667 85.3709 23.5C84.8209 23.8167 84.3709 24.2833 84.0209 24.9C83.6876 25.5167 83.5209 26.2417 83.5209 27.075C83.5209 27.9083 83.6876 28.6333 84.0209 29.25C84.3709 29.8667 84.8209 30.3417 85.3709 30.675C85.9376 30.9917 86.5376 31.15 87.1709 31.15C87.8209 31.15 88.4209 30.9833 88.9709 30.65C89.5376 30.3167 89.9876 29.8417 90.3209 29.225C90.6709 28.6083 90.8459 27.875 90.8459 27.025ZM98.7393 18.5C98.1226 18.5 97.6059 18.3083 97.1893 17.925C96.7893 17.525 96.5893 17.0333 96.5893 16.45C96.5893 15.8667 96.7893 15.3833 97.1893 15C97.6059 14.6 98.1226 14.4 98.7393 14.4C99.3559 14.4 99.8643 14.6 100.264 15C100.681 15.3833 100.889 15.8667 100.889 16.45C100.889 17.0333 100.681 17.525 100.264 17.925C99.8643 18.3083 99.3559 18.5 98.7393 18.5ZM100.464 20.15V34H96.9643V20.15H100.464ZM107.422 15.5V34H103.922V15.5H107.422ZM112.655 18.5C112.039 18.5 111.522 18.3083 111.105 17.925C110.705 17.525 110.505 17.0333 110.505 16.45C110.505 15.8667 110.705 15.3833 111.105 15C111.522 14.6 112.039 14.4 112.655 14.4C113.272 14.4 113.78 14.6 114.18 15C114.597 15.3833 114.805 15.8667 114.805 16.45C114.805 17.0333 114.597 17.525 114.18 17.925C113.78 18.3083 113.272 18.5 112.655 18.5ZM114.38 20.15V34H110.88V20.15H114.38ZM121.038 31.125H127.213V34H117.063V31.175L123.113 23.025H117.088V20.15H127.138V22.975L121.038 31.125ZM129.023 27.025C129.023 25.625 129.298 24.3833 129.848 23.3C130.415 22.2167 131.173 21.3833 132.123 20.8C133.09 20.2167 134.165 19.925 135.348 19.925C136.382 19.925 137.282 20.1333 138.048 20.55C138.832 20.9667 139.457 21.4917 139.923 22.125V20.15H143.448V34H139.923V31.975C139.473 32.625 138.848 33.1667 138.048 33.6C137.265 34.0167 136.357 34.225 135.323 34.225C134.157 34.225 133.09 33.925 132.123 33.325C131.173 32.725 130.415 31.8833 129.848 30.8C129.298 29.7 129.023 28.4417 129.023 27.025ZM139.923 27.075C139.923 26.225 139.757 25.5 139.423 24.9C139.09 24.2833 138.64 23.8167 138.073 23.5C137.507 23.1667 136.898 23 136.248 23C135.598 23 134.998 23.1583 134.448 23.475C133.898 23.7917 133.448 24.2583 133.098 24.875C132.765 25.475 132.598 26.1917 132.598 27.025C132.598 27.8583 132.765 28.5917 133.098 29.225C133.448 29.8417 133.898 30.3167 134.448 30.65C135.015 30.9833 135.615 31.15 136.248 31.15C136.898 31.15 137.507 30.9917 138.073 30.675C138.64 30.3417 139.09 29.875 139.423 29.275C139.757 28.6583 139.923 27.925 139.923 27.075Z" fill="url(#paint0_linear_8_75)"/>
<g filter="url(#filter0_d_8_75)">
<mask id="path-2-inside-1_8_75" fill="white">
<path d="M164 6C166.761 6 169 8.23858 169 11V16H174C176.761 16 179 18.2386 179 21C179 23.7614 176.761 26 174 26H169V31C169 33.7614 166.761 36 164 36C161.239 36 159 33.7614 159 31V26H154C151.239 26 149 23.7614 149 21C149 18.2386 151.239 16 154 16H159V11C159 8.23858 161.239 6 164 6Z"/>
</mask>
<path d="M164 6C166.761 6 169 8.23858 169 11V16H174C176.761 16 179 18.2386 179 21C179 23.7614 176.761 26 174 26H169V31C169 33.7614 166.761 36 164 36C161.239 36 159 33.7614 159 31V26H154C151.239 26 149 23.7614 149 21C149 18.2386 151.239 16 154 16H159V11C159 8.23858 161.239 6 164 6Z" fill="url(#paint1_linear_8_75)"/>
<path d="M169 11H172V11H169ZM169 16H166V19H169V16ZM174 16V13V13V16ZM174 26V29V29V26ZM169 26V23H166V26H169ZM169 31H172V31H169ZM159 31H156V31H159ZM159 26H162V23H159V26ZM154 26L154 29H154V26ZM154 16V13V13V16ZM159 16V19H162V16H159ZM159 11L156 11V11H159ZM164 6V9C165.105 9 166 9.89543 166 11H169H172C172 6.58172 168.418 3 164 3V6ZM169 11H166V16H169H172V11H169ZM169 16V19H174V16V13H169V16ZM174 16V19C175.105 19 176 19.8954 176 21H179H182C182 16.5817 178.418 13 174 13V16ZM179 21H176C176 22.1046 175.105 23 174 23V26V29C178.418 29 182 25.4183 182 21H179ZM174 26V23H169V26V29H174V26ZM169 26H166V31H169H172V26H169ZM169 31H166C166 32.1046 165.105 33 164 33V36V39C168.418 39 172 35.4183 172 31H169ZM164 36V33C162.895 33 162 32.1046 162 31H159H156C156 35.4183 159.582 39 164 39V36ZM159 31H162V26H159H156V31H159ZM159 26V23H154V26V29H159V26ZM154 26L154 23C152.895 23 152 22.1046 152 21H149H146C146 25.4183 149.582 29 154 29L154 26ZM149 21H152C152 19.8954 152.895 19 154 19V16V13C149.582 13 146 16.5817 146 21H149ZM154 16V19H159V16V13H154V16ZM159 16H162V11H159H156V16H159ZM159 11L162 11C162 9.89543 162.895 9 164 9V6V3C159.582 3 156 6.58172 156 11L159 11Z" fill="#1F2430" mask="url(#path-2-inside-1_8_75)"/>
</g>
<defs>
<filter id="filter0_d_8_75" x="137" y="0" width="54" height="54" filterUnits="userSpaceOnUse" color-interpolation-filters="sRGB">
<feFlood flood-opacity="0" result="BackgroundImageFix"/>
<feColorMatrix in="SourceAlpha" type="matrix" values="0 0 0 0 0 0 0 0 0 0 0 0 0 0 0 0 0 0 127 0" result="hardAlpha"/>
<feOffset dy="6"/>
<feGaussianBlur stdDeviation="6"/>
<feComposite in2="hardAlpha" operator="out"/>
<feColorMatrix type="matrix" values="0 0 0 0 0 0 0 0 0 0 0 0 0 0 0 0 0 0 0.15 0"/>
<feBlend mode="normal" in2="BackgroundImageFix" result="effect1_dropShadow_8_75"/>
<feBlend mode="normal" in="SourceGraphic" in2="effect1_dropShadow_8_75" result="shape"/>
</filter>
<linearGradient id="paint0_linear_8_75" x1="0" y1="21" x2="149" y2="21" gradientUnits="userSpaceOnUse">
<stop stop-color="#6BC497"/>
<stop offset="1" stop-color="#617196"/>
</linearGradient>
<linearGradient id="paint1_linear_8_75" x1="175.5" y1="9.5" x2="154" y2="31.5" gradientUnits="userSpaceOnUse">
<stop stop-color="#6BC497"/>
<stop offset="1" stop-color="#8EDFB3"/>
</linearGradient>
</defs>
</svg>
