<svg width="263" height="87" viewBox="0 0 263 87" fill="none" xmlns="http://www.w3.org/2000/svg">
<rect x="2" y="2" width="49" height="68" rx="6" fill="url(#paint0_linear_4_21)" fill-opacity="0.2" stroke="#1F2430" stroke-width="4"/>
<mask id="path-2-inside-1_4_21" fill="white">
<rect x="5" y="7" width="42" height="11" rx="2"/>
</mask>
<rect x="5" y="7" width="42" height="11" rx="2" fill="#B7C9D9" stroke="#1F2430" stroke-width="6" mask="url(#path-2-inside-1_4_21)"/>
<rect x="6.5" y="53.5" width="8" height="8" rx="4" fill="#C1D1E0" stroke="#1F2430" stroke-width="3"/>
<rect x="22.5" y="53.5" width="8" height="8" rx="4" fill="#C1D1E0" stroke="#1F2430" stroke-width="3"/>
<rect x="22.5" y="39.5" width="8" height="8" rx="4" fill="#C1D1E0" stroke="#1F2430" stroke-width="3"/>
<rect x="22.5" y="25.5" width="8" height="8" rx="4" fill="#C1D1E0" stroke="#1F2430" stroke-width="3"/>
<rect x="6.5" y="39.5" width="8" height="8" rx="4" fill="#C1D1E0" stroke="#1F2430" stroke-width="3"/>
<rect x="7.5" y="25.5" width="8" height="8" rx="4" fill="#C1D1E0" stroke="#1F2430" stroke-width="3"/>
<rect x="37.5" y="25.5" width="8" height="8" rx="4" fill="url(#paint1_linear_4_21)" stroke="#1F2430" stroke-width="3"/>
<g filter="url(#filter0_d_4_21)">
<circle cx="52.5" cy="52.5" r="16.5" fill="url(#paint2_linear_4_21)"/>
<circle cx="52.5" cy="52.5" r="14.5" stroke="#8EDFB3" stroke-width="4"/>
</g>
<path d="M50.675 61C49.075 61 47.8958 60.6167 47.1375 59.85C46.3792 59.075 46 57.9 46 56.325C46 56.05 46.1042 55.8083 46.3125 55.6C46.5292 55.3833 46.775 55.275 47.05 55.275C47.325 55.275 47.5667 55.3833 47.775 55.6C47.9917 55.8083 48.1 56.05 48.1 56.325C48.1 57.3333 48.2833 58.0167 48.65 58.375C49.0167 58.725 49.6917 58.9 50.675 58.9H54.125C55.1167 58.9 55.7917 58.725 56.15 58.375C56.5167 58.0167 56.7 57.3333 56.7 56.325C56.7 55.3083 56.5167 54.625 56.15 54.275C55.7917 53.925 55.1167 53.75 54.125 53.75H51.05C49.5417 53.75 48.4167 53.4 47.675 52.7C46.9417 52 46.575 50.9 46.575 49.4C46.575 47.8833 46.9417 46.7625 47.675 46.0375C48.4083 45.3125 49.525 44.95 51.025 44.95H54.05C55.55 44.95 56.6667 45.3125 57.4 46.0375C58.1333 46.7625 58.5 47.875 58.5 49.375C58.5 49.65 58.3917 49.8958 58.175 50.1125C57.9667 50.3208 57.725 50.425 57.45 50.425C57.175 50.425 56.9292 50.3208 56.7125 50.1125C56.5042 49.8958 56.4 49.65 56.4 49.375C56.4 48.4583 56.2375 47.8417 55.9125 47.525C55.5958 47.2083 54.975 47.05 54.05 47.05H51.025C50.1 47.05 49.475 47.2125 49.15 47.5375C48.8333 47.8542 48.675 48.475 48.675 49.4C48.675 50.3083 48.8375 50.9125 49.1625 51.2125C49.4875 51.5042 50.1167 51.65 51.05 51.65H54.125C55.7 51.65 56.8708 52.0375 57.6375 52.8125C58.4125 53.5792 58.8 54.75 58.8 56.325C58.8 57.9 58.4125 59.075 57.6375 59.85C56.8708 60.6167 55.7 61 54.125 61H50.675ZM52.4 63.25C51.8167 63.25 51.525 62.9583 51.525 62.375V53.225L51.675 52.125V43.25C51.675 42.6667 51.9667 42.375 52.55 42.375C53.1333 42.375 53.425 42.6667 53.425 43.25V52.225L53.275 53.175V62.375C53.275 62.9583 52.9833 63.25 52.4 63.25Z" fill="#1F2430"/>
<path d="M72.875 40.25C72.875 38.5333 73.2583 37 74.025 35.65C74.8083 34.2833 75.8667 33.225 77.2 32.475C78.55 31.7083 80.0583 31.325 81.725 31.325C83.675 31.325 85.3833 31.825 86.85 32.825C88.3167 33.825 89.3417 35.2083 89.925 36.975H85.9C85.5 36.1417 84.9333 35.5167 84.2 35.1C83.4833 34.6833 82.65 34.475 81.7 34.475C80.6833 34.475 79.775 34.7167 78.975 35.2C78.1917 35.6667 77.575 36.3333 77.125 37.2C76.6917 38.0667 76.475 39.0833 76.475 40.25C76.475 41.4 76.6917 42.4167 77.125 43.3C77.575 44.1667 78.1917 44.8417 78.975 45.325C79.775 45.7917 80.6833 46.025 81.7 46.025C82.65 46.025 83.4833 45.8167 84.2 45.4C84.9333 44.9667 85.5 44.3333 85.9 43.5H89.925C89.3417 45.2833 88.3167 46.675 86.85 47.675C85.4 48.6583 83.6917 49.15 81.725 49.15C80.0583 49.15 78.55 48.775 77.2 48.025C75.8667 47.2583 74.8083 46.2 74.025 44.85C73.2583 43.5 72.875 41.9667 72.875 40.25ZM99.0645 49.225C97.7311 49.225 96.5311 48.9333 95.4645 48.35C94.3978 47.75 93.5561 46.9083 92.9395 45.825C92.3395 44.7417 92.0395 43.4917 92.0395 42.075C92.0395 40.6583 92.3478 39.4083 92.9645 38.325C93.5978 37.2417 94.4561 36.4083 95.5395 35.825C96.6228 35.225 97.8311 34.925 99.1645 34.925C100.498 34.925 101.706 35.225 102.789 35.825C103.873 36.4083 104.723 37.2417 105.339 38.325C105.973 39.4083 106.289 40.6583 106.289 42.075C106.289 43.4917 105.964 44.7417 105.314 45.825C104.681 46.9083 103.814 47.75 102.714 48.35C101.631 48.9333 100.414 49.225 99.0645 49.225ZM99.0645 46.175C99.6978 46.175 100.289 46.025 100.839 45.725C101.406 45.4083 101.856 44.9417 102.189 44.325C102.523 43.7083 102.689 42.9583 102.689 42.075C102.689 40.7583 102.339 39.75 101.639 39.05C100.956 38.3333 100.114 37.975 99.1145 37.975C98.1145 37.975 97.2728 38.3333 96.5895 39.05C95.9228 39.75 95.5895 40.7583 95.5895 42.075C95.5895 43.3917 95.9145 44.4083 96.5645 45.125C97.2311 45.825 98.0645 46.175 99.0645 46.175ZM116.532 34.95C118.182 34.95 119.515 35.475 120.532 36.525C121.549 37.5583 122.057 39.0083 122.057 40.875V49H118.557V41.35C118.557 40.25 118.282 39.4083 117.732 38.825C117.182 38.225 116.432 37.925 115.482 37.925C114.515 37.925 113.749 38.225 113.182 38.825C112.632 39.4083 112.357 40.25 112.357 41.35V49H108.857V35.15H112.357V36.875C112.824 36.275 113.415 35.8083 114.132 35.475C114.865 35.125 115.665 34.95 116.532 34.95ZM129.46 38.025V44.725C129.46 45.1917 129.568 45.5333 129.785 45.75C130.018 45.95 130.402 46.05 130.935 46.05H132.56V49H130.36C127.41 49 125.935 47.5667 125.935 44.7V38.025H124.285V35.15H125.935V31.725H129.46V35.15H132.56V38.025H129.46ZM134.178 42.025C134.178 40.625 134.453 39.3833 135.003 38.3C135.569 37.2167 136.328 36.3833 137.278 35.8C138.244 35.2167 139.319 34.925 140.503 34.925C141.536 34.925 142.436 35.1333 143.203 35.55C143.986 35.9667 144.611 36.4917 145.078 37.125V35.15H148.603V49H145.078V46.975C144.628 47.625 144.003 48.1667 143.203 48.6C142.419 49.0167 141.511 49.225 140.478 49.225C139.311 49.225 138.244 48.925 137.278 48.325C136.328 47.725 135.569 46.8833 135.003 45.8C134.453 44.7 134.178 43.4417 134.178 42.025ZM145.078 42.075C145.078 41.225 144.911 40.5 144.578 39.9C144.244 39.2833 143.794 38.8167 143.228 38.5C142.661 38.1667 142.053 38 141.403 38C140.753 38 140.153 38.1583 139.603 38.475C139.053 38.7917 138.603 39.2583 138.253 39.875C137.919 40.475 137.753 41.1917 137.753 42.025C137.753 42.8583 137.919 43.5917 138.253 44.225C138.603 44.8417 139.053 45.3167 139.603 45.65C140.169 45.9833 140.769 46.15 141.403 46.15C142.053 46.15 142.661 45.9917 143.228 45.675C143.794 45.3417 144.244 44.875 144.578 44.275C144.911 43.6583 145.078 42.925 145.078 42.075ZM155.521 37.175C155.971 36.5083 156.588 35.9667 157.371 35.55C158.171 35.1333 159.079 34.925 160.096 34.925C161.279 34.925 162.346 35.2167 163.296 35.8C164.263 36.3833 165.021 37.2167 165.571 38.3C166.138 39.3667 166.421 40.6083 166.421 42.025C166.421 43.4417 166.138 44.7 165.571 45.8C165.021 46.8833 164.263 47.725 163.296 48.325C162.346 48.925 161.279 49.225 160.096 49.225C159.063 49.225 158.154 49.025 157.371 48.625C156.604 48.2083 155.988 47.675 155.521 47.025V49H152.021V30.5H155.521V37.175ZM162.846 42.025C162.846 41.1917 162.671 40.475 162.321 39.875C161.988 39.2583 161.538 38.7917 160.971 38.475C160.421 38.1583 159.821 38 159.171 38C158.538 38 157.938 38.1667 157.371 38.5C156.821 38.8167 156.371 39.2833 156.021 39.9C155.688 40.5167 155.521 41.2417 155.521 42.075C155.521 42.9083 155.688 43.6333 156.021 44.25C156.371 44.8667 156.821 45.3417 157.371 45.675C157.938 45.9917 158.538 46.15 159.171 46.15C159.821 46.15 160.421 45.9833 160.971 45.65C161.538 45.3167 161.988 44.8417 162.321 44.225C162.671 43.6083 162.846 42.875 162.846 42.025ZM170.739 33.5C170.123 33.5 169.606 33.3083 169.189 32.925C168.789 32.525 168.589 32.0333 168.589 31.45C168.589 30.8667 168.789 30.3833 169.189 30C169.606 29.6 170.123 29.4 170.739 29.4C171.356 29.4 171.864 29.6 172.264 30C172.681 30.3833 172.889 30.8667 172.889 31.45C172.889 32.0333 172.681 32.525 172.264 32.925C171.864 33.3083 171.356 33.5 170.739 33.5ZM172.464 35.15V49H168.964V35.15H172.464ZM179.422 30.5V49H175.922V30.5H179.422ZM184.655 33.5C184.039 33.5 183.522 33.3083 183.105 32.925C182.705 32.525 182.505 32.0333 182.505 31.45C182.505 30.8667 182.705 30.3833 183.105 30C183.522 29.6 184.039 29.4 184.655 29.4C185.272 29.4 185.78 29.6 186.18 30C186.597 30.3833 186.805 30.8667 186.805 31.45C186.805 32.0333 186.597 32.525 186.18 32.925C185.78 33.3083 185.272 33.5 184.655 33.5ZM186.38 35.15V49H182.88V35.15H186.38ZM193.038 46.125H199.213V49H189.063V46.175L195.113 38.025H189.088V35.15H199.138V37.975L193.038 46.125ZM201.023 42.025C201.023 40.625 201.298 39.3833 201.848 38.3C202.415 37.2167 203.173 36.3833 204.123 35.8C205.09 35.2167 206.165 34.925 207.348 34.925C208.382 34.925 209.282 35.1333 210.048 35.55C210.832 35.9667 211.457 36.4917 211.923 37.125V35.15H215.448V49H211.923V46.975C211.473 47.625 210.848 48.1667 210.048 48.6C209.265 49.0167 208.357 49.225 207.323 49.225C206.157 49.225 205.09 48.925 204.123 48.325C203.173 47.725 202.415 46.8833 201.848 45.8C201.298 44.7 201.023 43.4417 201.023 42.025ZM211.923 42.075C211.923 41.225 211.757 40.5 211.423 39.9C211.09 39.2833 210.64 38.8167 210.073 38.5C209.507 38.1667 208.898 38 208.248 38C207.598 38 206.998 38.1583 206.448 38.475C205.898 38.7917 205.448 39.2583 205.098 39.875C204.765 40.475 204.598 41.1917 204.598 42.025C204.598 42.8583 204.765 43.5917 205.098 44.225C205.448 44.8417 205.898 45.3167 206.448 45.65C207.015 45.9833 207.615 46.15 208.248 46.15C208.898 46.15 209.507 45.9917 210.073 45.675C210.64 45.3417 211.09 44.875 211.423 44.275C211.757 43.6583 211.923 42.925 211.923 42.075Z" fill="url(#paint3_linear_4_21)"/>
<g filter="url(#filter1_d_4_21)">
<mask id="path-14-inside-2_4_21" fill="white">
<path d="M236 21C238.761 21 241 23.2386 241 26V31H246C248.761 31 251 33.2386 251 36C251 38.7614 248.761 41 246 41H241V46C241 48.7614 238.761 51 236 51C233.239 51 231 48.7614 231 46V41H226C223.239 41 221 38.7614 221 36C221 33.2386 223.239 31 226 31H231V26C231 23.2386 233.239 21 236 21Z"/>
</mask>
<path d="M236 21C238.761 21 241 23.2386 241 26V31H246C248.761 31 251 33.2386 251 36C251 38.7614 248.761 41 246 41H241V46C241 48.7614 238.761 51 236 51C233.239 51 231 48.7614 231 46V41H226C223.239 41 221 38.7614 221 36C221 33.2386 223.239 31 226 31H231V26C231 23.2386 233.239 21 236 21Z" fill="url(#paint4_linear_4_21)"/>
<path d="M241 26H244V26H241ZM241 31H238V34H241V31ZM246 31V28V28V31ZM246 41V44V44V41ZM241 41V38H238V41H241ZM241 46H244V46H241ZM231 46H228V46H231ZM231 41H234V38H231V41ZM226 41L226 44H226V41ZM226 31V28V28V31ZM231 31V34H234V31H231ZM231 26L228 26V26H231ZM236 21V24C237.105 24 238 24.8954 238 26H241H244C244 21.5817 240.418 18 236 18V21ZM241 26H238V31H241H244V26H241ZM241 31V34H246V31V28H241V31ZM246 31V34C247.105 34 248 34.8954 248 36H251H254C254 31.5817 250.418 28 246 28V31ZM251 36H248C248 37.1046 247.105 38 246 38V41V44C250.418 44 254 40.4183 254 36H251ZM246 41V38H241V41V44H246V41ZM241 41H238V46H241H244V41H241ZM241 46H238C238 47.1046 237.105 48 236 48V51V54C240.418 54 244 50.4183 244 46H241ZM236 51V48C234.895 48 234 47.1046 234 46H231H228C228 50.4183 231.582 54 236 54V51ZM231 46H234V41H231H228V46H231ZM231 41V38H226V41V44H231V41ZM226 41L226 38C224.895 38 224 37.1046 224 36H221H218C218 40.4183 221.582 44 226 44L226 41ZM221 36H224C224 34.8954 224.895 34 226 34V31V28C221.582 28 218 31.5817 218 36H221ZM226 31V34H231V31V28H226V31ZM231 31H234V26H231H228V31H231ZM231 26L234 26C234 24.8954 234.895 24 236 24V21V18C231.582 18 228 21.5817 228 26L231 26Z" fill="#1F2430" mask="url(#path-14-inside-2_4_21)"/>
</g>
<defs>
<filter id="filter0_d_4_21" x="24" y="30" width="57" height="57" filterUnits="userSpaceOnUse" color-interpolation-filters="sRGB">
<feFlood flood-opacity="0" result="BackgroundImageFix"/>
<feColorMatrix in="SourceAlpha" type="matrix" values="0 0 0 0 0 0 0 0 0 0 0 0 0 0 0 0 0 0 127 0" result="hardAlpha"/>
<feOffset dy="6"/>
<feGaussianBlur stdDeviation="6"/>
<feComposite in2="hardAlpha" operator="out"/>
<feColorMatrix type="matrix" values="0 0 0 0 0 0 0 0 0 0 0 0 0 0 0 0 0 0 0.15 0"/>
<feBlend mode="normal" in2="BackgroundImageFix" result="effect1_dropShadow_4_21"/>
<feBlend mode="normal" in="SourceGraphic" in2="effect1_dropShadow_4_21" result="shape"/>
</filter>
<filter id="filter1_d_4_21" x="209" y="15" width="54" height="54" filterUnits="userSpaceOnUse" color-interpolation-filters="sRGB">
<feFlood flood-opacity="0" result="BackgroundImageFix"/>
<feColorMatrix in="SourceAlpha" type="matrix" values="0 0 0 0 0 0 0 0 0 0 0 0 0 0 0 0 0 0 127 0" result="hardAlpha"/>
<feOffset dy="6"/>
<feGaussianBlur stdDeviation="6"/>
<feComposite in2="hardAlpha" operator="out"/>
<feColorMatrix type="matrix" values="0 0 0 0 0 0 0 0 0 0 0 0 0 0 0 0 0 0 0.15 0"/>
<feBlend mode="normal" in2="BackgroundImageFix" result="effect1_dropShadow_4_21"/>
<feBlend mode="normal" in="SourceGraphic" in2="effect1_dropShadow_4_21" result="shape"/>
</filter>
<linearGradient id="paint0_linear_4_21" x1="26" y1="4" x2="26" y2="67.5" gradientUnits="userSpaceOnUse">
<stop stop-color="#4C56E0"/>
<stop offset="1" stop-color="#262F80"/>
</linearGradient>
<linearGradient id="paint1_linear_4_21" x1="41.5" y1="24" x2="41.5" y2="35" gradientUnits="userSpaceOnUse">
<stop stop-color="#FF7A84"/>
<stop offset="1" stop-color="#E04855"/>
</linearGradient>
<linearGradient id="paint2_linear_4_21" x1="52" y1="40" x2="52" y2="65.5" gradientUnits="userSpaceOnUse">
<stop stop-color="#6BC497"/>
<stop offset="1" stop-color="#8EDFB3"/>
</linearGradient>
<linearGradient id="paint3_linear_4_21" x1="72" y1="36" x2="221" y2="36" gradientUnits="userSpaceOnUse">
<stop stop-color="#6BC497"/>
<stop offset="1" stop-color="#617196"/>
</linearGradient>
<linearGradient id="paint4_linear_4_21" x1="247.5" y1="24.5" x2="226" y2="46.5" gradientUnits="userSpaceOnUse">
<stop stop-color="#6BC497"/>
<stop offset="1" stop-color="#8EDFB3"/>
</linearGradient>
</defs>
</svg>
