<svg width="81" height="87" viewBox="0 0 81 87" fill="none" xmlns="http://www.w3.org/2000/svg">
<rect x="2" y="2" width="49" height="68" rx="6" fill="url(#paint0_linear_18_6)" fill-opacity="0.2" stroke="#1F2430" stroke-width="4"/>
<mask id="path-2-inside-1_18_6" fill="white">
<rect x="5" y="7" width="42" height="11" rx="2"/>
</mask>
<rect x="5" y="7" width="42" height="11" rx="2" fill="#B7C9D9" stroke="#1F2430" stroke-width="6" mask="url(#path-2-inside-1_18_6)"/>
<rect x="6.5" y="53.5" width="8" height="8" rx="4" fill="#C1D1E0" stroke="#1F2430" stroke-width="3"/>
<rect x="22.5" y="53.5" width="8" height="8" rx="4" fill="#C1D1E0" stroke="#1F2430" stroke-width="3"/>
<rect x="22.5" y="39.5" width="8" height="8" rx="4" fill="#C1D1E0" stroke="#1F2430" stroke-width="3"/>
<rect x="22.5" y="25.5" width="8" height="8" rx="4" fill="#C1D1E0" stroke="#1F2430" stroke-width="3"/>
<rect x="6.5" y="39.5" width="8" height="8" rx="4" fill="#C1D1E0" stroke="#1F2430" stroke-width="3"/>
<rect x="7.5" y="25.5" width="8" height="8" rx="4" fill="#C1D1E0" stroke="#1F2430" stroke-width="3"/>
<rect x="37.5" y="25.5" width="8" height="8" rx="4" fill="url(#paint1_linear_18_6)" stroke="#1F2430" stroke-width="3"/>
<g filter="url(#filter0_d_18_6)">
<circle cx="52.5" cy="52.5" r="16.5" fill="url(#paint2_linear_18_6)"/>
<circle cx="52.5" cy="52.5" r="14.5" stroke="#8EDFB3" stroke-width="4"/>
</g>
<path d="M50.675 61C49.075 61 47.8958 60.6167 47.1375 59.85C46.3792 59.075 46 57.9 46 56.325C46 56.05 46.1042 55.8083 46.3125 55.6C46.5292 55.3833 46.775 55.275 47.05 55.275C47.325 55.275 47.5667 55.3833 47.775 55.6C47.9917 55.8083 48.1 56.05 48.1 56.325C48.1 57.3333 48.2833 58.0167 48.65 58.375C49.0167 58.725 49.6917 58.9 50.675 58.9H54.125C55.1167 58.9 55.7917 58.725 56.15 58.375C56.5167 58.0167 56.7 57.3333 56.7 56.325C56.7 55.3083 56.5167 54.625 56.15 54.275C55.7917 53.925 55.1167 53.75 54.125 53.75H51.05C49.5417 53.75 48.4167 53.4 47.675 52.7C46.9417 52 46.575 50.9 46.575 49.4C46.575 47.8833 46.9417 46.7625 47.675 46.0375C48.4083 45.3125 49.525 44.95 51.025 44.95H54.05C55.55 44.95 56.6667 45.3125 57.4 46.0375C58.1333 46.7625 58.5 47.875 58.5 49.375C58.5 49.65 58.3917 49.8958 58.175 50.1125C57.9667 50.3208 57.725 50.425 57.45 50.425C57.175 50.425 56.9292 50.3208 56.7125 50.1125C56.5042 49.8958 56.4 49.65 56.4 49.375C56.4 48.4583 56.2375 47.8417 55.9125 47.525C55.5958 47.2083 54.975 47.05 54.05 47.05H51.025C50.1 47.05 49.475 47.2125 49.15 47.5375C48.8333 47.8542 48.675 48.475 48.675 49.4C48.675 50.3083 48.8375 50.9125 49.1625 51.2125C49.4875 51.5042 50.1167 51.65 51.05 51.65H54.125C55.7 51.65 56.8708 52.0375 57.6375 52.8125C58.4125 53.5792 58.8 54.75 58.8 56.325C58.8 57.9 58.4125 59.075 57.6375 59.85C56.8708 60.6167 55.7 61 54.125 61H50.675ZM52.4 63.25C51.8167 63.25 51.525 62.9583 51.525 62.375V53.225L51.675 52.125V43.25C51.675 42.6667 51.9667 42.375 52.55 42.375C53.1333 42.375 53.425 42.6667 53.425 43.25V52.225L53.275 53.175V62.375C53.275 62.9583 52.9833 63.25 52.4 63.25Z" fill="#1F2430"/>
<defs>
<filter id="filter0_d_18_6" x="24" y="30" width="57" height="57" filterUnits="userSpaceOnUse" color-interpolation-filters="sRGB">
<feFlood flood-opacity="0" result="BackgroundImageFix"/>
<feColorMatrix in="SourceAlpha" type="matrix" values="0 0 0 0 0 0 0 0 0 0 0 0 0 0 0 0 0 0 127 0" result="hardAlpha"/>
<feOffset dy="6"/>
<feGaussianBlur stdDeviation="6"/>
<feComposite in2="hardAlpha" operator="out"/>
<feColorMatrix type="matrix" values="0 0 0 0 0 0 0 0 0 0 0 0 0 0 0 0 0 0 0.15 0"/>
<feBlend mode="normal" in2="BackgroundImageFix" result="effect1_dropShadow_18_6"/>
<feBlend mode="normal" in="SourceGraphic" in2="effect1_dropShadow_18_6" result="shape"/>
</filter>
<linearGradient id="paint0_linear_18_6" x1="26" y1="4" x2="26" y2="67.5" gradientUnits="userSpaceOnUse">
<stop stop-color="#4C56E0"/>
<stop offset="1" stop-color="#262F80"/>
</linearGradient>
<linearGradient id="paint1_linear_18_6" x1="41.5" y1="24" x2="41.5" y2="35" gradientUnits="userSpaceOnUse">
<stop stop-color="#FF7A84"/>
<stop offset="1" stop-color="#E04855"/>
</linearGradient>
<linearGradient id="paint2_linear_18_6" x1="52" y1="40" x2="52" y2="65.5" gradientUnits="userSpaceOnUse">
<stop stop-color="#6BC497"/>
<stop offset="1" stop-color="#8EDFB3"/>
</linearGradient>
</defs>
</svg>
